<svg width="49" height="22" viewBox="0 0 49 22" fill="none" xmlns="http://www.w3.org/2000/svg">
<path d="M0 17.808V0H3V17.808H0Z" fill="#BBBBBB"/>
<path d="M11.0415 17.808C9.7295 17.808 8.5615 17.528 7.5375 16.968C6.5135 16.392 5.7055 15.608 5.1135 14.616C4.5215 13.624 4.2255 12.496 4.2255 11.232C4.2255 9.952 4.5215 8.824 5.1135 7.848C5.7055 6.856 6.5135 6.08 7.5375 5.52C8.5615 4.96 9.7295 4.68 11.0415 4.68C12.3695 4.68 13.5455 4.96 14.5695 5.52C15.6095 6.08 16.4175 6.848 16.9935 7.824C17.5855 8.8 17.8815 9.936 17.8815 11.232C17.8815 12.496 17.5855 13.624 16.9935 14.616C16.4175 15.608 15.6095 16.392 14.5695 16.968C13.5455 17.528 12.3695 17.808 11.0415 17.808ZM11.0415 15.24C11.7775 15.24 12.4335 15.08 13.0095 14.76C13.5855 14.44 14.0335 13.976 14.3535 13.368C14.6895 12.76 14.8575 12.048 14.8575 11.232C14.8575 10.4 14.6895 9.688 14.3535 9.096C14.0335 8.488 13.5855 8.024 13.0095 7.704C12.4335 7.384 11.7855 7.224 11.0655 7.224C10.3295 7.224 9.6735 7.384 9.0975 7.704C8.5375 8.024 8.0895 8.488 7.7535 9.096C7.4175 9.688 7.2495 10.4 7.2495 11.232C7.2495 12.048 7.4175 12.76 7.7535 13.368C8.0895 13.976 8.5375 14.44 9.0975 14.76C9.6735 15.08 10.3215 15.24 11.0415 15.24Z" fill="#BBBBBB"/>
<path d="M42.16 17.808C40.848 17.808 39.68 17.528 38.656 16.968C37.632 16.392 36.824 15.608 36.232 14.616C35.64 13.624 35.344 12.496 35.344 11.232C35.344 9.952 35.64 8.824 36.232 7.848C36.824 6.856 37.632 6.08 38.656 5.52C39.68 4.96 40.848 4.68 42.16 4.68C43.488 4.68 44.664 4.96 45.688 5.52C46.728 6.08 47.536 6.848 48.112 7.824C48.704 8.8 49 9.936 49 11.232C49 12.496 48.704 13.624 48.112 14.616C47.536 15.608 46.728 16.392 45.688 16.968C44.664 17.528 43.488 17.808 42.16 17.808ZM42.16 15.24C42.896 15.24 43.552 15.08 44.128 14.76C44.704 14.44 45.152 13.976 45.472 13.368C45.808 12.76 45.976 12.048 45.976 11.232C45.976 10.4 45.808 9.688 45.472 9.096C45.152 8.488 44.704 8.024 44.128 7.704C43.552 7.384 42.904 7.224 42.184 7.224C41.448 7.224 40.792 7.384 40.216 7.704C39.656 8.024 39.208 8.488 38.872 9.096C38.536 9.688 38.368 10.4 38.368 11.232C38.368 12.048 38.536 12.76 38.872 13.368C39.208 13.976 39.656 14.44 40.216 14.76C40.792 15.08 41.44 15.24 42.16 15.24Z" fill="#BBBBBB"/>
<path d="M26.504 17.64C25.192 17.64 24.024 17.36 23 16.8C21.976 16.224 21.168 15.44 20.576 14.448C19.984 13.456 19.688 12.328 19.688 11.064C19.688 9.784 19.984 8.656 20.576 7.68C21.168 6.688 21.976 5.912 23 5.352C24.024 4.792 25.192 4.512 26.504 4.512C27.832 4.512 29.008 4.792 30.032 5.352C31.072 5.912 31.88 6.68 32.456 7.656C33.048 8.632 33 9.704 33 11C33 11.2646 33.0021 11.5261 33 11.7833C32.992 12.7544 32.9241 13.6637 32.456 14.448C31.88 15.44 31.072 16.224 30.032 16.8C29.008 17.36 27.832 17.64 26.504 17.64ZM26.504 15.072C27.24 15.072 27.896 14.912 28.472 14.592C29.048 14.272 29.496 13.808 29.816 13.2C30.152 12.592 30.32 11.88 30.32 11.064C30.32 10.232 30.152 9.52 29.816 8.928C29.496 8.32 29.048 7.856 28.472 7.536C27.896 7.216 27.248 7.056 26.528 7.056C25.792 7.056 25.136 7.216 24.56 7.536C24 7.856 23.552 8.32 23.216 8.928C22.88 9.52 22.712 10.232 22.712 11.064C22.712 11.88 22.88 12.592 23.216 13.2C23.552 13.808 24 14.272 24.56 14.592C25.136 14.912 25.784 15.072 26.504 15.072Z" fill="#BBBBBB"/>
<path d="M32.456 14.448C31.88 15.44 31.072 16.224 30.032 16.8C29.008 17.36 27.832 17.64 26.504 17.64H30.32C30.3563 19.1693 30.0339 19.7049 28.472 20H26.504V22C26.504 22 27 22 29 22C31 22 33 19 33 17.64C33 16.28 33 11.7833 33 11.7833C32.992 12.7544 32.9241 13.6637 32.456 14.448Z" fill="#BBBBBB"/>
</svg>
