<svg width="118" height="39" viewBox="0 0 118 39" fill="none" xmlns="http://www.w3.org/2000/svg">
<path d="M24.5 17.0001C15.8878 11.1352 10.881 10.675 1.5 17.0001L4 19.9998C13.381 13.6747 15.8878 16.1349 24.5 21.9998C33.0915 27.5769 37.9085 28.0738 46.5 21.9998C56.6554 15.7817 62.112 16.051 71.5 21.9998C80.0915 27.5769 84.9085 28.0738 93.5 21.9998C102.881 15.6747 104.388 14.1349 113 19.9998L116.5 17C107.888 11.1351 102.881 10.675 93.5 17.0001C84.9085 23.0741 80.0915 22.5772 71.5 17.0001C62.112 11.0513 56.6554 10.782 46.5 17.0001C37.9085 23.0741 33.0915 22.5772 24.5 17.0001Z" stroke="black"/>
<path d="M24.5 28.5002C15.8878 22.6352 10.881 22.1751 1.5 28.5002L4 31.4999C13.381 25.1747 15.8878 27.6349 24.5 33.4998C33.0915 39.0769 37.9085 39.5738 46.5 33.4998C56.6554 27.2817 62.112 27.551 71.5 33.4998C80.0915 39.0769 84.9085 39.5738 93.5 33.4998C102.881 27.1747 104.388 25.6349 113 31.4999L116.5 28.5C107.888 22.6351 102.881 22.1751 93.5 28.5002C84.9085 34.5741 80.0915 34.0772 71.5 28.5002C62.112 22.5513 56.6554 22.282 46.5 28.5002C37.9085 34.5741 33.0915 34.0772 24.5 28.5002Z" stroke="black"/>
<path d="M24.5 5.50031C15.8878 -0.364603 10.881 -0.824798 1.5 5.50031L4 8.5C13.381 2.1749 15.8878 4.63509 24.5 10.5C33.0915 16.0771 37.9085 16.574 46.5 10.5C56.6554 4.28181 62.112 4.55115 71.5 10.5C80.0915 16.0771 84.9085 16.574 93.5 10.5C102.881 4.17489 104.388 2.63509 113 8.5L116.5 5.50019C107.888 -0.364717 102.881 -0.824798 93.5 5.50031C84.9085 11.5743 80.0915 11.0774 71.5 5.50031C62.112 -0.44854 56.6554 -0.717879 46.5 5.50031C37.9085 11.5743 33.0915 11.0774 24.5 5.50031Z" stroke="black"/>
</svg>
